<svg width="450" height="225" viewBox="0 0 450 225" fill="none" xmlns="http://www.w3.org/2000/svg">
<rect width="450" height="225" fill="#F5F5F5"/>
<path d="M167.839 110.708C161.512 110.708 156.317 109.216 152.253 106.232C148.189 103.197 146.003 98.8764 145.694 93.2694H161.821C161.975 95.1727 162.541 96.5616 163.518 97.4361C164.496 98.3106 165.756 98.7478 167.299 98.7478C168.688 98.7478 169.82 98.4135 170.694 97.7447C171.62 97.0246 172.083 96.0472 172.083 94.8126C172.083 93.218 171.337 91.9834 169.845 91.1089C168.354 90.2344 165.936 89.2571 162.592 88.1768C159.043 86.9937 156.162 85.862 153.95 84.7817C151.79 83.6501 149.887 82.0297 148.24 79.9206C146.646 77.7601 145.849 74.9566 145.849 71.5101C145.849 68.0122 146.723 65.0286 148.472 62.5595C150.221 60.0389 152.639 58.1356 155.725 56.8496C158.812 55.5636 162.309 54.9206 166.219 54.9206C172.546 54.9206 177.587 56.4123 181.342 59.3959C185.149 62.328 187.181 66.4689 187.438 71.8187H171.003C170.951 70.1726 170.437 68.9381 169.46 68.115C168.534 67.292 167.325 66.8805 165.833 66.8805C164.701 66.8805 163.776 67.2148 163.055 67.8835C162.335 68.5523 161.975 69.5039 161.975 70.7385C161.975 71.7673 162.361 72.6675 163.133 73.4391C163.956 74.1593 164.959 74.8023 166.142 75.3681C167.325 75.8825 169.074 76.5513 171.389 77.3743C174.835 78.5574 177.664 79.7406 179.876 80.9237C182.14 82.0554 184.069 83.6758 185.663 85.7848C187.31 87.8425 188.133 90.4659 188.133 93.6552C188.133 96.896 187.31 99.8024 185.663 102.374C184.069 104.946 181.728 106.978 178.642 108.47C175.607 109.962 172.006 110.708 167.839 110.708ZM210.287 72.899C211.47 70.8928 213.142 69.2982 215.302 68.115C217.463 66.9319 220.009 66.3403 222.941 66.3403C226.388 66.3403 229.5 67.2405 232.278 69.041C235.107 70.8414 237.319 73.4134 238.913 76.757C240.559 80.1007 241.383 84.0101 241.383 88.4855C241.383 92.9608 240.559 96.896 238.913 100.291C237.319 103.635 235.107 106.207 232.278 108.007C229.5 109.808 226.388 110.708 222.941 110.708C220.009 110.708 217.463 110.116 215.302 108.933C213.193 107.75 211.521 106.155 210.287 104.149V130.847H195.163V66.8805H210.287V72.899ZM226.028 88.4855C226.028 85.6562 225.256 83.47 223.713 81.9268C222.221 80.3321 220.369 79.5348 218.157 79.5348C215.945 79.5348 214.068 80.3321 212.524 81.9268C211.033 83.5215 210.287 85.7077 210.287 88.4855C210.287 91.3147 211.033 93.5266 212.524 95.1213C214.068 96.7159 215.945 97.5133 218.157 97.5133C220.369 97.5133 222.221 96.7159 223.713 95.1213C225.256 93.4752 226.028 91.2632 226.028 88.4855ZM245.139 88.4855C245.139 84.0101 245.937 80.1007 247.531 76.757C249.177 73.4134 251.389 70.8414 254.167 69.041C256.996 67.2405 260.134 66.3403 263.581 66.3403C266.564 66.3403 269.136 66.9319 271.297 68.115C273.457 69.2982 275.129 70.8928 276.312 72.899V66.8805H291.436V110.168H276.312V104.149C275.129 106.155 273.432 107.75 271.22 108.933C269.059 110.116 266.513 110.708 263.581 110.708C260.134 110.708 256.996 109.808 254.167 108.007C251.389 106.207 249.177 103.635 247.531 100.291C245.937 96.896 245.139 92.9608 245.139 88.4855ZM276.312 88.4855C276.312 85.7077 275.541 83.5215 273.997 81.9268C272.506 80.3321 270.654 79.5348 268.442 79.5348C266.178 79.5348 264.301 80.3321 262.809 81.9268C261.317 83.47 260.571 85.6562 260.571 88.4855C260.571 91.2632 261.317 93.4752 262.809 95.1213C264.301 96.7159 266.178 97.5133 268.442 97.5133C270.654 97.5133 272.506 96.7159 273.997 95.1213C275.541 93.5266 276.312 91.3147 276.312 88.4855ZM315.177 74.5194C316.875 72.0502 318.932 70.0955 321.35 68.6552C323.768 67.2148 326.365 66.4947 329.143 66.4947V82.6212H324.899C321.607 82.6212 319.164 83.2643 317.569 84.5503C315.974 85.8363 315.177 88.0739 315.177 91.2632V110.168H300.054V66.8805H315.177V74.5194ZM332.096 88.4855C332.096 84.0101 333.022 80.1007 334.874 76.757C336.725 73.4134 339.297 70.8414 342.59 69.041C345.933 67.2405 349.74 66.3403 354.009 66.3403C359.514 66.3403 364.143 67.8578 367.898 70.8928C371.653 73.8764 374.071 78.0688 375.151 83.47H359.102C358.176 80.6408 356.376 79.2262 353.701 79.2262C351.797 79.2262 350.28 80.0235 349.148 81.6182C348.068 83.1614 347.528 85.4505 347.528 88.4855C347.528 91.5204 348.068 93.8353 349.148 95.4299C350.28 97.0246 351.797 97.8219 353.701 97.8219C356.427 97.8219 358.228 96.4073 359.102 93.5781H375.151C374.071 98.9279 371.653 103.12 367.898 106.155C364.143 109.19 359.514 110.708 354.009 110.708C349.74 110.708 345.933 109.808 342.59 108.007C339.297 106.207 336.725 103.635 334.874 100.291C333.022 96.9474 332.096 93.0122 332.096 88.4855ZM422.792 88.0225C422.792 89.2056 422.715 90.3888 422.561 91.5719H393.934C394.088 93.9381 394.731 95.7128 395.863 96.896C397.046 98.0277 398.538 98.5935 400.338 98.5935C402.859 98.5935 404.659 97.4618 405.74 95.1984H421.866C421.197 98.182 419.886 100.857 417.931 103.223C416.028 105.538 413.61 107.364 410.678 108.702C407.746 110.039 404.505 110.708 400.956 110.708C396.686 110.708 392.88 109.808 389.536 108.007C386.244 106.207 383.646 103.635 381.743 100.291C379.891 96.9474 378.965 93.0122 378.965 88.4855C378.965 83.9587 379.891 80.0492 381.743 76.757C383.595 73.4134 386.167 70.8414 389.459 69.041C392.802 67.2405 396.635 66.3403 400.956 66.3403C405.225 66.3403 409.006 67.2148 412.298 68.9638C415.59 70.7128 418.163 73.2334 420.014 76.5255C421.866 79.7663 422.792 83.5986 422.792 88.0225ZM407.36 84.2416C407.36 82.3898 406.743 80.9494 405.508 79.9206C404.274 78.8404 402.73 78.3002 400.879 78.3002C399.027 78.3002 397.509 78.8147 396.326 79.8435C395.143 80.8208 394.371 82.2869 394.011 84.2416H407.36ZM444.105 53.0687V110.168H428.981V53.0687H444.105ZM296.91 124.937C300.039 124.937 302.422 125.655 304.058 127.09C305.694 128.497 306.513 130.334 306.513 132.602C306.513 133.263 306.455 133.88 306.34 134.454C305.996 136.464 305.12 138.258 303.714 139.837C302.307 141.416 300.426 142.536 298.072 143.196L302.938 155.168H294.627L290.364 143.756H288.598L286.574 155.168H279.21L284.55 124.937H296.91ZM298.804 134.756C298.862 134.296 298.89 133.995 298.89 133.851C298.89 132.933 298.589 132.229 297.986 131.741C297.412 131.224 296.551 130.966 295.402 130.966H290.838L289.503 138.545H294.067C295.417 138.545 296.479 138.215 297.254 137.555C298.058 136.894 298.575 135.961 298.804 134.756ZM322.289 130.794C325.389 130.794 327.844 131.641 329.652 133.335C331.49 135 332.408 137.282 332.408 140.182C332.408 141.129 332.337 141.976 332.193 142.722C332.078 143.383 331.906 144.086 331.676 144.832H315.011C314.982 145.005 314.968 145.277 314.968 145.651C314.968 146.914 315.312 147.876 316.001 148.536C316.69 149.196 317.609 149.526 318.757 149.526C320.595 149.526 322.001 148.751 322.978 147.201H330.815C329.782 149.641 328.102 151.636 325.777 153.187C323.451 154.737 320.839 155.512 317.939 155.512C314.839 155.512 312.355 154.651 310.489 152.928C308.652 151.206 307.733 148.866 307.733 145.909C307.733 145.019 307.819 144.1 307.992 143.153C308.422 140.655 309.312 138.473 310.661 136.607C312.011 134.741 313.69 133.306 315.7 132.301C317.71 131.296 319.906 130.794 322.289 130.794ZM324.959 141.086C325.016 140.684 325.045 140.411 325.045 140.268C325.045 139.119 324.686 138.244 323.968 137.641C323.25 137.009 322.303 136.693 321.126 136.693C319.863 136.693 318.743 137.081 317.767 137.856C316.82 138.603 316.131 139.679 315.7 141.086H324.959ZM343.829 146.899C343.801 147.043 343.786 147.23 343.786 147.459C343.786 147.976 343.93 148.349 344.217 148.579C344.533 148.809 345.035 148.923 345.724 148.923H348.351L347.231 155.168H343.485C338.662 155.168 336.25 153.144 336.25 149.096C336.25 148.493 336.322 147.732 336.466 146.813L338.188 137.253H335.26L336.336 131.138H339.265L340.298 125.282H347.662L346.628 131.138H351.452L350.375 137.253H345.552L343.829 146.899ZM379.281 131.138L375.061 155.168H367.697L368.257 151.895C367.31 152.957 366.147 153.818 364.769 154.479C363.42 155.11 361.97 155.426 360.419 155.426C358.008 155.426 356.113 154.751 354.735 153.402C353.357 152.024 352.668 150.115 352.668 147.675C352.668 146.756 352.74 145.923 352.883 145.177L355.381 131.138H362.702L360.419 144.186C360.333 144.646 360.29 145.091 360.29 145.521C360.29 146.727 360.62 147.66 361.281 148.321C361.97 148.952 362.917 149.268 364.123 149.268C365.501 149.268 366.664 148.866 367.611 148.062C368.587 147.23 369.233 146.053 369.549 144.531L371.917 131.138H379.281ZM391.159 135.488C392.279 134.052 393.556 132.933 394.992 132.129C396.456 131.296 397.978 130.88 399.557 130.88L398.179 138.674H396.155C394.317 138.674 392.867 139.076 391.805 139.88C390.743 140.655 390.04 142.033 389.695 144.014L387.714 155.168H380.35L384.571 131.138H391.934L391.159 135.488ZM417.675 130.88C420.086 130.88 421.981 131.555 423.359 132.904C424.737 134.253 425.426 136.134 425.426 138.545C425.426 139.349 425.34 140.21 425.168 141.129L422.67 155.168H415.349L417.675 142.119C417.761 141.631 417.804 141.201 417.804 140.828C417.804 139.622 417.459 138.689 416.77 138.028C416.11 137.368 415.177 137.038 413.971 137.038C412.536 137.038 411.33 137.483 410.354 138.373C409.378 139.263 408.746 140.512 408.459 142.119V141.904L406.134 155.168H398.77L402.99 131.138H410.354L409.794 134.368C410.742 133.306 411.89 132.459 413.239 131.827C414.617 131.196 416.096 130.88 417.675 130.88ZM437.778 155.512C435.883 155.512 434.175 155.211 432.653 154.608C431.161 154.005 429.984 153.172 429.122 152.11C428.261 151.019 427.83 149.77 427.83 148.364C427.83 148.163 427.859 147.804 427.916 147.287H435.022C434.965 148.177 435.223 148.895 435.797 149.44C436.4 149.957 437.247 150.215 438.338 150.215C439.256 150.215 440.017 150.043 440.62 149.699C441.223 149.354 441.524 148.866 441.524 148.234C441.524 147.632 441.194 147.158 440.534 146.813C439.902 146.44 438.84 145.995 437.347 145.478C435.797 144.962 434.491 144.459 433.429 143.971C432.395 143.454 431.505 142.722 430.759 141.775C430.012 140.828 429.639 139.636 429.639 138.201C429.639 136.794 430.055 135.531 430.888 134.411C431.72 133.263 432.883 132.373 434.376 131.741C435.898 131.11 437.649 130.794 439.63 130.794C441.611 130.794 443.333 131.124 444.797 131.784C446.261 132.416 447.395 133.306 448.199 134.454C449.003 135.603 449.405 136.894 449.405 138.33L449.362 138.976H442.687C442.745 138.115 442.486 137.426 441.912 136.909C441.338 136.392 440.52 136.134 439.457 136.134C438.625 136.134 437.936 136.306 437.39 136.65C436.874 136.995 436.615 137.469 436.615 138.071C436.615 138.703 436.96 139.234 437.649 139.665C438.367 140.067 439.472 140.526 440.965 141.043C442.515 141.56 443.792 142.076 444.797 142.593C445.831 143.081 446.706 143.785 447.424 144.703C448.171 145.593 448.544 146.713 448.544 148.062C448.544 149.612 448.07 150.947 447.123 152.067C446.204 153.187 444.926 154.048 443.29 154.651C441.682 155.225 439.845 155.512 437.778 155.512Z" fill="#FF5823"/>
<path d="M92.9448 33.7656L100.204 19.6603L92.1366 15.7523L85.9852 11.5804L84.4383 8.44744L85.3444 6.92843L94.1947 10.4497L102.969 13.4236L107.245 10.0464L111.369 5.57455L115.446 2.78228L128.034 1.04844L132.44 2.67225L138.988 5.6741L145.639 11.4501L150.252 18.6223L151.533 27.9263L149.295 37.994L143.123 45.8152L138.848 49.1925L134.743 49.7579L132.051 64.6283L128.698 78.7533L126.327 91.9065L126.683 106.636L127.426 122.149L130.113 131.538L132.811 138.974L143.547 148.091L158.237 155.548L176.269 158.92L191.819 158.451L201.67 157.094L195.931 172.106L191.456 184.155L188.085 194.1L184.328 203.261L180.807 212.111L176.373 208.261L173.741 203.325L171.345 198.078L170.478 191.784L171.479 186.906L172.302 178.707L161.441 178.808L152.42 178.099L145.042 177.163L136.144 175.322L129.671 172.867L123.086 169.592L118.802 166.836L113.359 161.73L108.5 156.822L107.746 151.349L105.284 151.688L99.4895 154.16L87.5704 162.772L75.471 176.15L67.0324 191.812L62.3216 204.172L60.7912 213.306L59.9032 219.005L58.1565 224.544L50.4484 219.192L44.3723 215.568L37.4 211.509L29.1822 206.506L19.8322 201.381L10.4068 195.708L6.93457 194.792L6.51995 191.782L20.2122 187.944L32.2429 188.239L40.867 190.118L46.5284 190.733L45.9253 186.354L48.2012 176.56L51.534 166.342L55.6123 155.463L58.9255 149.151L64.3525 141.99L73.0256 134.103L78.7443 131.085L82.6327 126.924L10.9368 136.8L0.383018 60.1782L78.9201 49.3605L83.8201 84.9348L85.7356 84.6709L94.0137 69.8676L101.168 61.0746L110.662 53.0748L112.748 49.9991L109.946 47.8755L105.785 43.9871L103.031 40.1839L100.635 34.9371L92.9448 33.7656Z" fill="#FF5823" stroke="#FF5823" stroke-width="0.552464"/>
<path d="M48.8922 99.5793L51.4123 106.329L54.2444 105.817L60.48 104.358L68.9764 102.821L80.1294 98.0043L86.9689 92.6954L90.0321 88.0693L92.7951 85.377L95.3817 87.1022L98.9268 90.5336L105.619 93.3961L110.067 98.2304L109.042 101.548L102.558 105.227L96.348 110.422C95.1806 111.155 92.6571 112.655 91.9019 112.792L80.888 114.783L73.965 116.035L61.6923 118.253L51.9371 120.017C50.4267 120.29 48.3072 121.509 47.4363 122.084L40.2129 125.269L35.8073 126.066L31.4018 126.862L26.7625 124.568L26.2141 121.535L30.1404 119.885L32.6984 117.856L29.6469 117.155L25.556 117.895L21.7798 118.577L19.3577 117.762L18.8092 114.729L19.7938 112.985L22.1467 111.619L24.514 112.131L28.4404 110.482L32.7879 109.364L28.1113 108.662L22.5424 108.415L21.1596 106.159L21.6101 103.259L25.3863 102.576L29.7918 101.779L34.1021 102.253L36.2644 103.428L39.0965 102.916L38.603 100.186L38.9842 95.1054L42.2264 93.2662L45.2779 93.9675L47.5499 95.7496L48.8922 99.5793Z" fill="#FF5823"/>
<circle cx="108.709" cy="25.1675" r="4.15569" fill="#FF5823"/>
</svg>
